<?xml version="1.0" encoding="UTF-8"?>
<svg width="100%" height="100%" viewBox="0 0 44 44" version="1.1" xmlns="http://www.w3.org/2000/svg" xmlns:xlink="http://www.w3.org/1999/xlink">
    <title>编组 18</title>
    <g id="OP-BEVM" stroke="none" stroke-width="1" fill="none" fill-rule="evenodd">
        <g id="activity弹窗" transform="translate(-724.000000, -190.000000)">
            <g id="编组-17备份-2" transform="translate(704.000000, 112.000000)">
                <g id="编组-18" transform="translate(20.000000, 78.000000)">
                    <path d="M22,0 C34.1515625,0 44,9.84843751 44,22 C44,34.1515625 34.1515625,44 22,44 C9.84843747,44 0,34.1515625 0,22 C0,9.84843756 9.85273437,0 22,0 Z" id="路径" fill="#E2E2E2" fill-rule="nonzero"></path>
                    <g id="编组-19" transform="translate(12.971345, 6.500000)">
                        <polygon id="路径-4" fill="#979491" points="9.51754386 0 0 15.7926788 19.0350877 15.7926788"></polygon>
                        <polygon id="路径-4" fill="#433F3E" points="9.51754386 0 9.51754386 15.7926788 19.0350877 15.7926788"></polygon>
                        <polygon id="路径-5" fill="#464341" points="9.51754386 11.5 0 15.7926788 9.51754386 21.4696503 19.0350877 15.7926788"></polygon>
                        <path d="M9.51754386,11.5 L19.0350877,15.7926788 L9.51754386,21.4696503 L9.51754386,11.5 Z" id="形状结合" fill="#2D2B29"></path>
                        <polygon id="路径-6" fill="#979491" points="0 17.6108818 9.51754386 23.2286377 9.51754386 31"></polygon>
                        <polygon id="路径-6" fill="#433F3E" points="19.0350877 17.6108818 9.51754386 23.2286377 9.51754386 31"></polygon>
                    </g>
                </g>
            </g>
        </g>
    </g>
</svg>
